<?xml version="1.0" encoding="UTF-8" standalone="no"?>
<svg
   xmlns:dc="http://purl.org/dc/elements/1.1/"
   xmlns:cc="http://creativecommons.org/ns#"
   xmlns:rdf="http://www.w3.org/1999/02/22-rdf-syntax-ns#"
   xmlns:svg="http://www.w3.org/2000/svg"
   xmlns="http://www.w3.org/2000/svg"
   xmlns:sodipodi="http://sodipodi.sourceforge.net/DTD/sodipodi-0.dtd"
   xmlns:inkscape="http://www.inkscape.org/namespaces/inkscape"
   inkscape:export-ydpi="8.4244461"
   inkscape:export-xdpi="8.4244461"
   inkscape:export-filename="C:\Users\Mark\desktop\journal-app\public\images\edit_arrow_2.png"
   width="123mm"
   height="122mm"
   viewBox="0 0 123 122"
   version="1.1"
   id="svg8"
   inkscape:version="1.0 (4035a4fb49, 2020-05-01)"
   sodipodi:docname="edit_arrow_2.svg">
  <defs
     id="defs2" />
  <sodipodi:namedview
     id="base"
     pagecolor="#ffffff"
     bordercolor="#666666"
     borderopacity="1.0"
     inkscape:pageopacity="0.0"
     inkscape:pageshadow="2"
     inkscape:zoom="0.71453698"
     inkscape:cx="200.46567"
     inkscape:cy="215.5596"
     inkscape:document-units="mm"
     inkscape:current-layer="layer1"
     inkscape:document-rotation="0"
     showgrid="false"
     inkscape:window-width="1920"
     inkscape:window-height="1017"
     inkscape:window-x="-8"
     inkscape:window-y="-8"
     inkscape:window-maximized="1" />
  <metadata
     id="metadata5">
    <rdf:RDF>
      <cc:Work
         rdf:about="">
        <dc:format>image/svg+xml</dc:format>
        <dc:type
           rdf:resource="http://purl.org/dc/dcmitype/StillImage" />
        <dc:title></dc:title>
      </cc:Work>
    </rdf:RDF>
  </metadata>
  <g
     inkscape:label="Layer 1"
     inkscape:groupmode="layer"
     id="layer1">
    <path
       id="rect837"
       style="opacity:0.8;fill:#c83270;fill-opacity:1;stroke:#ffffff;stroke-width:3.205;stroke-opacity:1;stroke-miterlimit:4;stroke-dasharray:none"
       d="M 16.985307,2.0758263 C 16.227239,1.962949 15.414963,2.058202 14.828318,2.3723725 L 3.5346112,8.4203809 c -0.93863,0.502668 -0.9321592,1.3696155 0.014077,1.9438111 L 91.742775,63.882081 4.2579476,110.7333 c -0.938622,0.50267 -0.9326542,1.36954 0.013578,1.94373 l 11.3849694,6.90878 c 0.946242,0.57421 2.463661,0.63159 3.402288,0.1289 L 108.2376,71.95632 119.53131,65.908308 c 0.0585,-0.03137 0.11355,-0.06425 0.16476,-0.09828 10e-5,-6.4e-5 10e-6,-2.09e-4 1.2e-4,-2.83e-4 0.3076,-0.20453 0.48249,-0.454456 0.52489,-0.715213 1e-5,-1e-4 1e-4,-1.95e-4 1.1e-4,-2.84e-4 0.007,-0.04348 0.0102,-0.08715 0.01,-0.131048 -7.7e-4,-0.0878 -0.0158,-0.176315 -0.0459,-0.26398 -0.03,-0.08764 -0.0749,-0.174604 -0.13442,-0.259538 -0.0297,-0.04235 -0.0635,-0.08423 -0.10054,-0.125522 -5e-5,-6.3e-5 1.7e-4,-2.2e-4 1.2e-4,-2.83e-4 -0.0371,-0.04138 -0.0779,-0.08188 -0.12243,-0.121739 -0.0445,-0.03982 -0.0925,-0.07875 -0.14428,-0.116742 -0.0517,-0.03805 -0.10732,-0.07503 -0.16647,-0.110904 l -11.38435,-6.908695 c -0.003,-0.0022 -0.006,-0.0034 -0.009,-0.0045 L 18.23049,2.5015689 C 17.87565,2.2862453 17.440146,2.1435506 16.985307,2.0758263 Z" />
  </g>
</svg>
