<?xml version="1.0" encoding="UTF-8" standalone="no"?>
<svg
   xmlns:dc="http://purl.org/dc/elements/1.1/"
   xmlns:cc="http://creativecommons.org/ns#"
   xmlns:rdf="http://www.w3.org/1999/02/22-rdf-syntax-ns#"
   xmlns:svg="http://www.w3.org/2000/svg"
   xmlns="http://www.w3.org/2000/svg"
   xmlns:sodipodi="http://sodipodi.sourceforge.net/DTD/sodipodi-0.dtd"
   xmlns:inkscape="http://www.inkscape.org/namespaces/inkscape"
   sodipodi:docname="land_bg.svg"
   inkscape:version="1.0 (4035a4fb49, 2020-05-01)"
   id="svg8"
   version="1.1"
   viewBox="0 0 297 210"
   height="210mm"
   width="297mm">
  <defs
     id="defs2" />
  <sodipodi:namedview
     inkscape:window-maximized="1"
     inkscape:window-y="-8"
     inkscape:window-x="-8"
     inkscape:window-height="1017"
     inkscape:window-width="1920"
     showgrid="false"
     inkscape:document-rotation="0"
     inkscape:current-layer="layer1"
     inkscape:document-units="mm"
     inkscape:cy="546.37822"
     inkscape:cx="638.60452"
     inkscape:zoom="0.69547161"
     inkscape:pageshadow="2"
     inkscape:pageopacity="0.0"
     borderopacity="1.0"
     bordercolor="#666666"
     pagecolor="#ffffff"
     id="base" />
  <metadata
     id="metadata5">
    <rdf:RDF>
      <cc:Work
         rdf:about="">
        <dc:format>image/svg+xml</dc:format>
        <dc:type
           rdf:resource="http://purl.org/dc/dcmitype/StillImage" />
        <dc:title></dc:title>
      </cc:Work>
    </rdf:RDF>
  </metadata>
  <g
     id="layer1"
     inkscape:groupmode="layer"
     inkscape:label="Layer 1">
    <path
       id="path833"
       d="m -0.12625889,97.742378 c 0,0 34.56484489,-14.482137 54.56210989,-12.528649 19.997261,1.953506 27.091163,20.942741 37.680655,28.705031 10.589494,7.76228 41.579004,20.25227 63.897804,16.47053 22.3188,-3.78177 22.70129,-3.86292 22.70129,-3.86292 0,0 40.70499,-12.92516 63.08732,46.1924 22.38233,59.11758 -10.5665,49.42634 -10.5665,49.42634 L 3.0026438,268.65892 c 0,0 -28.9545388,-112.53367 -28.4580668,-114.54544 0.496474,-2.01179 25.32916411,-56.371102 25.32916411,-56.371102 z"
       style="fill:#b5ecd5;fill-opacity:1;stroke:none;stroke-width:0.290901px;stroke-linecap:butt;stroke-linejoin:miter;stroke-opacity:1" />
    <path
       style="fill:#d2f4e6;fill-opacity:1;stroke:none;stroke-width:0.282335px;stroke-linecap:butt;stroke-linejoin:miter;stroke-opacity:1"
       d="m -10.828373,116.24147 c 0,0 34.564846,-13.64179 54.56211,-11.80166 19.997261,1.84014 27.091164,19.72753 37.680656,27.03937 10.589492,7.31184 41.578997,19.07705 63.897797,15.51475 22.3188,-3.56231 22.70129,-3.63874 22.70129,-3.63874 0,0 40.705,-12.17513 63.08732,43.51189 22.38234,55.68703 -10.56649,46.55815 -10.56649,46.55815 L -7.6994699,277.23988 c 0,0 -28.9545381,-106.00341 -28.4580661,-107.89845 0.496474,-1.89504 25.329163,-53.09996 25.329163,-53.09996 z"
       id="path835" />
  </g>
</svg>
